<svg xmlns="http://www.w3.org/2000/svg" width="28" height="28" fill="none"><g clip-path="url(#a)"><path fill="#fff" d="M24.447 26.147c-.107-1.021-.133-2.05-.235-3.075-.152-1.533-.37-3.058-.824-4.538-.245-.793-.618-1.48-1.362-1.918-.712-.418-1.488-.666-2.267-.91-.272-.085-.224.107-.208.246.072.67.01 1.33-.128 1.984-.045.21.027.307.208.41.768.43 1.205 1.086 1.253 1.974.048.915-.138 1.814-.194 2.72-.038.616-.104 1.235-.363 1.808-.312.694-.85.968-1.587.827-.28-.053-.464-.181-.418-.49.045-.305.256-.412.536-.355.352.069.557-.096.701-.384.099-.2.152-.42.173-.64.104-1.022.216-2.043.299-3.067.075-.925-.421-1.627-1.243-1.814-.848-.192-1.578.192-1.928 1.056-.28.691-.509 1.403-.776 2.102a7.121 7.121 0 0 0-.362 1.205c-.104.536.002.733.498.957.238.107.352.275.27.528-.083.256-.27.329-.526.28-.73-.138-1.154-.658-1.141-1.408.005-.306.05-.602.136-.895.315-1.088.728-2.142 1.15-3.192.378-.945 1.133-1.465 2.16-1.537.2-.015.285-.072.322-.266a6.944 6.944 0 0 0 .085-1.952c-.026-.31-.146-.478-.469-.528a3.395 3.395 0 0 1-.768-.23c-.245-.098-.352-.069-.437.209-.302 1.008-.723 1.97-1.211 2.903-.235.451-.507.883-.808 1.406-.12-.662-.21-1.224-.328-1.784-.053-.25-.048-.477.061-.715.062-.136.224-.296.062-.442-.259-.235-.542-.44-.816-.656-.008-.008-.046.01-.062.024-.266.229-.57.426-.778.698-.126.163.117.376.17.574.011.045.035.093.03.136-.112.688-.23 1.373-.355 2.125-.088-.104-.128-.144-.155-.19A17.773 17.773 0 0 1 11.1 15.74c-.088-.259-.08-.659-.301-.742-.208-.077-.52.129-.787.203-.138.04-.261.078-.314.24-.102.315-.246.614-.32.928-.49 2.048-.368 4.075.264 6.078.096.303.21.469.557.535.67.134 1.03.867.8 1.502-.24.67-.963.984-1.592.696-.635-.288-.907-1.07-.539-1.65.134-.212.118-.374.046-.582a12.245 12.245 0 0 1-.547-5.97c.072-.47.23-.918.336-1.414-.93.272-1.824.498-2.63.968-.591.344-1.05.795-1.309 1.45-.309.787-.496 1.603-.653 2.43-.363 1.92-.475 3.87-.621 5.813-.04.53.197.859.618 1.107h19.704c.502-.238.694-.616.635-1.184ZM9.546 9.747c.181.048.266.136.336.301.408.976.912 1.893 1.661 2.656.592.605 1.277 1.059 2.147 1.147 1.093.112 1.946-.376 2.685-1.115.752-.755 1.275-1.661 1.683-2.643.056-.133.074-.3.277-.32.728-.069 1.296-1.22 1.176-1.922-.035-.2-.11-.384-.328-.398-.272-.018-.221-.162-.181-.33a9.995 9.995 0 0 0 .234-1.747 4.94 4.94 0 0 0-.138-1.408c-.163-.645-.496-1.2-1.102-1.51-.357-.183-.632-.386-.752-.783-.045-.155-.197-.256-.322-.36-.464-.384-1.014-.552-1.584-.608-1.71-.168-3.304.197-4.715 1.192-.973.682-1.643 1.584-1.779 2.81a8 8 0 0 0 .107 2.406c.032.17.101.35-.2.344-.136-.003-.224.112-.27.245-.25.715.329 1.848 1.065 2.043Z"/></g><defs><clipPath id="a"><path fill="#fff" d="M.667.667h26.667v26.667H.667z"/></clipPath></defs></svg>