<svg xmlns="http://www.w3.org/2000/svg" width="19" height="19" fill="none"><path fill="#2F80ED" d="M18.788 8.769c-.99-1.62-2.32-2.92-3.992-3.902-1.672-.983-3.437-1.474-5.296-1.474-1.859 0-3.624.491-5.296 1.474C2.532 5.849 1.202 7.15.212 8.769A1.468 1.468 0 0 0 0 9.5c0 .24.07.484.212.732.99 1.619 2.32 2.92 3.992 3.901 1.672.983 3.437 1.474 5.296 1.474 1.86 0 3.624-.49 5.296-1.468a11.249 11.249 0 0 0 3.992-3.907c.141-.248.212-.491.212-.732 0-.24-.07-.484-.212-.731Zm-11.562-2.9c.632-.633 1.39-.95 2.274-.95.141 0 .261.05.36.15.1.098.149.218.149.36 0 .141-.05.261-.148.36a.49.49 0 0 1-.36.149c-.609 0-1.128.215-1.56.646-.43.432-.646.951-.646 1.559 0 .142-.05.262-.149.36a.49.49 0 0 1-.36.15.491.491 0 0 1-.36-.15.49.49 0 0 1-.15-.36c0-.883.317-1.642.95-2.274Zm6.88 7.093A8.73 8.73 0 0 1 9.5 14.25c-1.654 0-3.19-.429-4.607-1.288-1.417-.859-2.596-2.013-3.536-3.462 1.075-1.668 2.421-2.916 4.04-3.743a4.633 4.633 0 0 0-.647 2.386c0 1.308.465 2.426 1.394 3.356.93.93 2.048 1.394 3.356 1.394 1.308 0 2.426-.465 3.356-1.394.93-.93 1.394-2.048 1.394-3.356 0-.855-.216-1.65-.647-2.386 1.619.827 2.965 2.075 4.04 3.743-.94 1.45-2.119 2.603-3.536 3.462Z"/></svg>