<svg xmlns="http://www.w3.org/2000/svg" width="16" height="16" fill="none"><path fill="#D21010" d="M2.667 8a.667.667 0 0 0 .666.667h5.06L6.86 10.193a.667.667 0 0 0 .217 1.093.666.666 0 0 0 .73-.146l2.666-2.667a.666.666 0 0 0 .14-.22.666.666 0 0 0 0-.506.666.666 0 0 0-.14-.22L7.807 4.86a.67.67 0 0 0-.947.947l1.533 1.526h-5.06A.667.667 0 0 0 2.667 8Zm8.666-6.667H4.667a2 2 0 0 0-2 2v2a.667.667 0 1 0 1.333 0v-2a.667.667 0 0 1 .667-.666h6.666a.667.667 0 0 1 .667.666v9.334a.667.667 0 0 1-.667.666H4.667A.667.667 0 0 1 4 12.667v-2a.667.667 0 1 0-1.333 0v2a2 2 0 0 0 2 2h6.666a2 2 0 0 0 2-2V3.333a2 2 0 0 0-2-2Z"/></svg>